<svg xmlns="http://www.w3.org/2000/svg" xmlns:xlink="http://www.w3.org/1999/xlink" viewBox="0,0,256,256" width="64px" height="64px" fill-rule="nonzero"><g fill="#160d26" fill-rule="nonzero" stroke="none" stroke-width="1" stroke-linecap="butt" stroke-linejoin="miter" stroke-miterlimit="10" stroke-dasharray="" stroke-dashoffset="0" font-family="none" font-weight="none" font-size="none" text-anchor="none" style="mix-blend-mode: normal"><g transform="scale(10.66667,10.66667)"><path d="M6,3c-1.64497,0 -3,1.35503 -3,3v12c0,1.64497 1.35503,3 3,3h12c1.64497,0 3,-1.35503 3,-3v-12c0,-1.64497 -1.35503,-3 -3,-3zM6,5h12c0.56503,0 1,0.43497 1,1v12c0,0.56503 -0.43497,1 -1,1h-12c-0.56503,0 -1,-0.43497 -1,-1v-12c0,-0.56503 0.43497,-1 1,-1zM12,7v7c0,0.56503 -0.43497,1 -1,1c-0.56503,0 -1,-0.43497 -1,-1c0,-0.56503 0.43497,-1 1,-1v-2c-1.64497,0 -3,1.35503 -3,3c0,1.64497 1.35503,3 3,3c1.64497,0 3,-1.35503 3,-3v-3.76758c0.61615,0.43892 1.25912,0.76758 2,0.76758v-2c-0.04733,0 -0.73733,-0.21906 -1.21875,-0.63867c-0.48142,-0.41961 -0.78125,-0.94634 -0.78125,-1.36133z"></path></g></g></svg>